PathFileType	4	(X/Y/Z)	Patient4_TMGait_0pt4_01_left_34.trc.trc
DataRate	CameraRate	NumFrames	NumMarkers	Units	OrigDataRate	OrigDataStartFrame	OrigNumFrames
76.502732240437	76.502732240437	4	33	mm	76.502732240437	1	       141
Frame#	Time	Sacral			L.Shoulder			Chest			R.Shoulder			Neck			R.ASIS			L.ASIS			R.Thigh.Superior			R.Thigh.Lateral			R.Thigh.Inferior			R.Patella			L.Thigh.Superior			L.Thigh.Lateral			L.Thigh.Inferior			L.Patella			L.Shank.Superior			L.Shank.Lateral			L.Shank.Inferior			R.Shank.Superior			R.Shank.Lateral			R.Shank.Inferior			R.Heel			R.Midfoot.Superior			R.Midfoot.Lateral			R.Toe			L.Heel			L.Midfoot.Lateral			L.Midfoot.Superior			L.Toe			L.Elbow			L.Wrist			R.Elbow			R.Wrist			
		X1	Y1	Z1	X2	Y2	Z2	X3	Y3	Z3	X4	Y4	Z4	X5	Y5	Z5	X6	Y6	Z6	X7	Y7	Z7	X8	Y8	Z8	X9	Y9	Z9	X10	Y10	Z10	X11	Y11	Z11	X12	Y12	Z12	X13	Y13	Z13	X14	Y14	Z14	X15	Y15	Z15	X16	Y16	Z16	X17	Y17	Z17	X18	Y18	Z18	X19	Y19	Z19	X20	Y20	Z20	X21	Y21	Z21	X22	Y22	Z22	X23	Y23	Z23	X24	Y24	Z24	X25	Y25	Z25	X26	Y26	Z26	X27	Y27	Z27	X28	Y28	Z28	X29	Y29	Z29	X30	Y30	Z30	X31	Y31	Z31	X32	Y32	Z32	X33	Y33	Z33	

1	42.160000000000	817.338055629779	1005.316022145005	556.240555110397	979.776274703265	1433.886115749275	359.790581051395	1091.564595325547	1372.266799778886	517.441178256125	1014.870823053360	1447.225601799698	694.128744846946	968.127279479813	1499.023210805625	515.417824565393	1053.337216905618	947.750789479684	660.214265975878	1023.641571150361	968.104282981362	387.033134542872	1084.122986847455	741.620411468444	626.582600828019	1002.132137843892	634.279397043978	689.702578350083	1072.017340879468	581.550905751508	606.743104382235	1067.995383546670	495.931069681674	611.801448182125	1109.857057449241	787.983821665570	407.808516531635	1061.870670542023	660.278353485508	328.037730718539	1170.748381152907	600.676906503147	377.458695780387	1187.359868098893	515.506783239014	369.305511908836	1132.724468616361	441.544547370057	365.153483673247	1000.718783890388	372.614858451997	319.209809743692	1015.974690328003	242.439213821609	374.025422317632	1041.216999798664	405.682374924710	618.699200527658	971.773603978794	301.111251737722	682.415551792342	1011.893732922039	207.815450918494	614.286535588696	877.830619138284	42.184864437415	586.130305825499	1049.957491254863	98.144085158174	614.517173179632	964.745019043668	36.240476195010	657.211235762459	1171.877788556325	47.066373116013	634.497276945923	843.251046260219	137.105724598437	416.106444225855	906.937156443030	107.661975818214	332.910761451197	1008.233890917346	139.763363285831	351.825182419241	1109.235216203693	49.780743454816	317.950473285980	952.197705991706	1081.885222508877	241.882751481662	1079.000302534271	850.942234337763	224.203337090123	1001.722837593535	1117.371491000475	852.587925735411	1164.958677800522	915.787159288162	846.567161238071	
2	42.173071428571	816.936556528221	1005.600439824199	558.017229368054	978.415234709952	1434.164337282340	361.648215682680	1091.456230392328	1371.947050532752	518.174529554413	1016.530306533422	1446.775482656544	695.645894890166	968.281730209759	1498.931347586443	517.633765739988	1053.005539034050	947.411596058003	660.657986085940	1022.217096002868	968.274584603358	387.508666416614	1081.819831856900	741.136973165221	626.936770874154	999.032331068408	634.286302346726	690.728185570312	1068.128073838519	581.010738769103	607.371223211499	1063.547600872501	495.541484444727	612.555004418377	1107.997709492850	788.283313003512	408.188708179781	1060.272980514564	660.489118376499	328.300240800092	1168.684281850980	600.846070039956	378.301521877573	1186.313203866383	517.616304269461	369.938102247463	1135.673414896530	443.173081681970	364.875196712239	1009.120185579661	366.982731145899	318.174793220529	1032.898193626132	238.212719852660	371.652682087354	1036.429074336483	405.419468224851	619.236767543842	966.657803984189	300.982130774657	682.682883719934	1006.565796690247	207.640378383093	614.546578663515	872.277296951543	42.194841560500	586.119465785732	1044.385651092603	97.987956454943	614.412956588580	959.173981566969	36.203929429677	657.179030770846	1166.319841875791	46.893654110819	634.573929651619	868.766228068995	122.401304132871	412.945424674013	933.515583241607	97.878156809742	329.460324290246	1032.036449269543	135.861281007368	348.622334923093	1137.731177215701	53.119018055169	313.935259303128	944.821023046031	1082.644516021990	244.405616802554	1067.791821267416	849.843294173953	225.305376509347	1008.181355183061	1116.431413500419	853.566782148231	1173.740308449577	916.911977585218	844.791373922295	
3	42.186142857143	816.546237678345	1005.859637088791	559.732361579271	977.113110129508	1434.410941991409	363.449230464097	1091.355435797930	1371.614652226247	518.891986319862	1018.131083708698	1446.305250861418	697.118891807179	968.441125523575	1498.817264556780	519.792401910025	1052.687545559727	947.052170902546	661.098140345266	1020.833891699082	968.395592424459	387.990422077912	1079.579094736243	740.634116099220	627.294126568505	996.008930633620	634.272888503562	691.706714712850	1064.321053281867	580.463002625355	607.973621876668	1059.170412974017	495.143113595451	613.269452516275	1106.060721611803	788.384312085137	408.558804869294	1058.512985651839	660.596325203705	328.494861971799	1166.387654618852	600.819550827332	379.196545840049	1185.042206240604	519.580692956066	370.621968862459	1138.407923187890	444.777998767222	364.622082563969	1017.495132503878	361.416994163703	317.058723211661	1049.719846762783	234.210549197918	369.303260159130	1031.729593911029	405.150408445025	619.745836931511	961.629686419056	300.845629759712	682.932424979253	1001.305424402438	207.454999756826	614.783801348591	866.762990011469	42.205436012101	586.107303291820	1038.852204480566	97.827291852021	614.305182144855	953.644005173575	36.172163786021	657.148442487811	1160.804033606519	46.712682234224	634.650747465800	894.292604238489	108.140226601325	409.716214717665	960.136268620143	88.444844785224	326.037769060493	1055.812680420240	132.222324232120	345.497182585711	1166.097036031061	56.670987064193	310.204209454794	937.549266112459	1083.383158069754	246.908578259432	1056.644798581150	848.720624350865	226.403635885590	1014.527730185035	1115.470143416860	854.462848258000	1182.461122538736	918.068393307077	842.945292482313	
4	42.199214285714	816.177454560357	1006.075599194778	561.329421495862	975.920401285335	1434.603704839615	365.133206734525	1091.268953374760	1371.264106496826	519.567718651237	1019.622163723753	1445.805464907297	698.497683873843	968.607202927409	1498.668103769491	521.827216318644	1052.398071094671	946.659148922241	661.516231253522	1019.524124601298	968.438990666439	388.466963897836	1077.463498227023	740.100200285839	627.635936404082	993.138025627303	634.222256473744	692.584569809562	1060.677729282229	579.902409003841	608.513349368756	1054.945600449839	494.728708916929	613.900629890823	1104.003080813503	788.159260428706	408.899586416090	1056.488377477127	660.528219819107	328.584279455061	1163.721718718551	600.469622142351	380.163985743140	1183.403935564854	521.297365348586	371.388341095332	1140.757036738640	446.337537202768	364.419028394366	1025.754172928804	356.027812543484	315.836582764343	1066.224780930806	230.650239113180	367.031557208405	1027.202202543615	404.868725397503	620.191767666686	956.771397682036	300.699422827820	683.144492121804	996.172326473791	207.252546687348	614.974898238334	861.319292288370	42.219363073037	586.093888774199	1033.392336842842	97.663482305022	614.196679291246	948.188521074192	36.149635474349	657.121061097672	1155.364254029929	46.515150619125	634.727622644653	919.623440955457	94.789913303961	406.428277121352	986.601831267376	79.722506175289	322.721649726422	1079.334047559017	129.097440953501	342.553995016801	1193.986432813687	60.600643117013	307.011242875854	930.517533939812	1084.082979380437	249.356045746245	1045.637643346145	847.559939448272	227.493747566074	1020.636530049178	1114.472566480632	855.180076993459	1191.051843857187	919.330287385163	840.932847660728	
